<svg xmlns="http://www.w3.org/2000/svg" viewBox="0 0 773.21 530.72"><title>B2BSite_Color</title><g id="Capa_2" data-name="Capa 2"><g id="Layer_1" data-name="Layer 1"><rect width="59.66" height="64.06" transform="translate(59.66 64.06) rotate(180)" fill="#444950"/><path d="M215.49,179.57c14.39-17.56,22-39.83,22-65.7,0-24.18-5.55-45.19-16.48-62.45-9.7-15.31-23.42-27.38-40.77-35.89C157.36,4.33,132.19,1.35,112.35.66V62.08c52.58,2.48,63.79,22.57,63.79,51.79,0,20.4-8.33,32.41-27.85,40.14a104.46,104.46,0,0,1-22.45,5.81l-1.82,0v.28a182.15,182.15,0,0,1-25.46,1.58H59.66v-.32H0V382.4H135.69c12.07,0,40.34,0,67.28-13.22a94.89,94.89,0,0,0,39.48-35.24c10.76-17.25,16.21-38.39,16.21-62.82C258.66,220.82,237.23,193.94,215.49,179.57ZM135.69,321h-76V223H98.56a241.7,241.7,0,0,0,31.27-1.82c14.64,0,33.66.35,47.43,7,6,2.9,20,9.69,20,42.9C197.31,307,180,321,135.69,321Z" fill="#c3202f"/><rect x="514.54" width="59.66" height="64.06" transform="translate(1088.75 64.06) rotate(180)" fill="#444950"/><path d="M730,179.57c14.39-17.56,22-39.83,22-65.7,0-24.18-5.55-45.19-16.48-62.45-9.7-15.31-23.42-27.38-40.77-35.89C671.91,4.33,646.73,1.35,626.89.66V62.08c52.58,2.48,63.79,22.57,63.79,51.79,0,20.4-8.33,32.41-27.85,40.14a104.46,104.46,0,0,1-22.45,5.81l-1.82,0v.28a182.15,182.15,0,0,1-25.46,1.58H574.21v-.32H514.54V382.4H650.24c12.07,0,40.34,0,67.28-13.22A94.89,94.89,0,0,0,757,333.93c10.76-17.25,16.21-38.39,16.21-62.82C773.21,220.82,751.78,193.94,730,179.57ZM650.24,321h-76V223H613.1a241.7,241.7,0,0,0,31.27-1.82c14.64,0,33.66.35,47.43,7,6,2.9,20,9.69,20,42.9C711.85,307,694.58,321,650.24,321Z" fill="#c3202f"/><path d="M254.17,378.51l.72-40.33c82.39-58,185.47-139.43,185.47-191.87,0-38.52-27.84-67.52-68.38-67.52s-71.8,23.65-73.94,67.52H243.92a128.28,128.28,0,0,1,256.57,0c0,42.31-26,84.4-60.9,121.34-13.21,13.88-38.66,37.73-53.66,50h45.34v61.67Z" fill="#444950"/><rect x="447.21" y="318.52" width="45.19" height="61.36" fill="#c3202f"/><path d="M536.84,509.22a10.74,10.74,0,0,0,10.66-10.66c0-4.51-1.76-7.39-5.36-8.69-7.58-2.81-5.75-2.16-13.14-4.71a42,42,0,0,1-19.81-14.58c-2.88-3.92-4.31-8.76-4.31-14.58a32,32,0,0,1,64,0H547.62a10.62,10.62,0,0,0-21.25.07A9.57,9.57,0,0,0,531,464.7c6.28,4.05,5.56,3.27,13.07,5.49a40.62,40.62,0,0,1,20.46,13.86c2.94,3.79,4.44,8.69,4.44,14.64a32,32,0,0,1-64,0h21.31a10.66,10.66,0,0,0,10.66,10.66Z" fill="#444950"/><path d="M578.6,424.76h21.11V530.14H578.6Z" fill="#444950"/><path d="M656.32,424.76h26.34v21H656.32v84.33H635.21V445.81H608.86v-21h47.46Z" fill="#444950"/><path d="M755,424.76v21h-42.1v21.11h31.57v21H712.92v21H755v21.11H691.81V424.76Z" fill="#444950"/></g></g></svg>